<svg xmlns="http://www.w3.org/2000/svg" xmlns:xlink="http://www.w3.org/1999/xlink" width="90" height="50" viewBox="0 0 90 50">
  <defs>
    <clipPath id="clip-Artboard_1">
      <rect width="90" height="50"/>
    </clipPath>
  </defs>
  <g id="Artboard_1" data-name="Artboard – 1" clip-path="url(#clip-Artboard_1)">
    <rect width="90" height="50" fill="#fff"/>
    <path id="Icon_awesome-money-bill-alt" data-name="Icon awesome-money-bill-alt" d="M50.414,35.2ZM85.143,4.5H4.481A4.364,4.364,0,0,0,0,8.735V51.081a4.364,4.364,0,0,0,4.481,4.235H85.143a4.364,4.364,0,0,0,4.481-4.235V8.735A4.364,4.364,0,0,0,85.143,4.5ZM6.722,48.964V40.495a8.726,8.726,0,0,1,8.962,8.469Zm0-29.643V10.852h8.962A8.726,8.726,0,0,1,6.722,19.321Zm38.09,25.408c-7.425,0-13.444-6.637-13.444-14.821s6.019-14.821,13.444-14.821,13.444,6.635,13.444,14.821S52.234,44.729,44.812,44.729ZM82.9,48.964H73.94A8.726,8.726,0,0,1,82.9,40.495Zm0-29.643a8.726,8.726,0,0,1-8.962-8.469H82.9Z" transform="translate(0 -5)" fill="#92f0ac" stroke="#92f0ac" stroke-width="1"/>
    <path id="Icon_awesome-smile-beam" data-name="Icon awesome-smile-beam" d="M17.523.563A17.275,17.275,0,0,0,0,17.584,17.275,17.275,0,0,0,17.523,34.605,17.275,17.275,0,0,0,35.046,17.584,17.275,17.275,0,0,0,17.523.563ZM7.914,15.346c.233-2.89,2.275-4.9,3.957-4.9s3.724,2.011,3.957,4.9a.565.565,0,0,1-1.053.309l-1.149-1.167c-.544-.94-.879-1.483-1.748-1.483s-1.118.542-1.662,1.483L8.981,15.655a.574.574,0,0,1-1.067-.309Zm17.721,8.428a10.756,10.756,0,0,1-16.223,0c-.954-1.119.777-2.519,1.738-1.407a8.46,8.46,0,0,0,12.747,0c.961-1.112,2.692.3,1.738,1.407Zm.438-8.119-1.2-1.167c-.544-.94-.832-1.483-1.7-1.483s-1.261.542-1.8,1.483l-1.092,1.167a.566.566,0,0,1-1.053-.309c.233-2.89,2.275-4.9,3.957-4.9s3.724,2.011,3.957,4.9A.574.574,0,0,1,26.073,15.655Z" transform="translate(26.829 7)" fill="#f092a7" stroke="#f092a7" stroke-width="1"/>
    <path id="Icon_material-attach-money" data-name="Icon material-attach-money" d="M12.869,9.487c-1.4-.372-1.855-.758-1.855-1.357,0-.688.625-1.168,1.67-1.168,1.1,0,1.509.537,1.546,1.326H15.6a2.5,2.5,0,0,0-1.985-2.405V4.5H11.756V5.864A2.442,2.442,0,0,0,9.591,8.143c0,1.458,1.181,2.184,2.907,2.607,1.546.379,1.855.934,1.855,1.521,0,.436-.3,1.13-1.67,1.13-1.274,0-1.775-.581-1.843-1.326H9.48a2.621,2.621,0,0,0,2.276,2.418v1.37h1.855V14.506a2.318,2.318,0,0,0,2.165-2.241C15.776,10.472,14.273,9.86,12.869,9.487Z" transform="translate(2.494 14)" fill="#f092a7"/>
    <path id="Icon_material-attach-money-2" data-name="Icon material-attach-money" d="M12.869,9.487c-1.4-.372-1.855-.758-1.855-1.357,0-.688.625-1.168,1.67-1.168,1.1,0,1.509.537,1.546,1.326H15.6a2.5,2.5,0,0,0-1.985-2.405V4.5H11.756V5.864A2.442,2.442,0,0,0,9.591,8.143c0,1.458,1.181,2.184,2.907,2.607,1.546.379,1.855.934,1.855,1.521,0,.436-.3,1.13-1.67,1.13-1.274,0-1.775-.581-1.843-1.326H9.48a2.621,2.621,0,0,0,2.276,2.418v1.37h1.855V14.506a2.318,2.318,0,0,0,2.165-2.241C15.776,10.472,14.273,9.86,12.869,9.487Z" transform="translate(60.494 15)" fill="#f092a7"/>
  </g>
</svg>
